<?xml version="1.0" encoding="UTF-8"?><svg id="Layer_2" xmlns="http://www.w3.org/2000/svg" viewBox="0 0 124.6 135.89"><defs><style>.cls-1{fill:#231f20;}.cls-2{fill:#fff;}</style></defs><g id="Layer_1-2"><path class="cls-2" d="M60.15,135.39c-.53,0-1.11-.2-1.73-.61-.27-.17-.41-.39-.45-.68-.18-1.32,1.9-3.69,3.42-5.42.89-1.01,1.65-1.88,1.92-2.45.29-.61.65-1.35,1.05-2.17,1.95-4,4.9-10.05,5.59-12.91.39-1.62.47-3.54.55-5.4.07-1.73.14-3.36.44-4.74.17-.78.64-1.63,1.15-2.54.46-.82.93-1.67,1.2-2.51.9-2.86,3.1-18.98,1.01-20.46l-.13-.09-11.37,6.16.03.17c.33,2.18,1.95,4.4,3.52,6.55,1.93,2.66,3.76,5.17,3.32,7.51-1.06,2.12-2.5,4.16-3.89,6.13-1.25,1.77-2.54,3.59-3.57,5.53-.71,1.34-1.25,2.7-1.77,4.01-.68,1.72-1.32,3.35-2.33,4.93-.32,1.22.44,1.96,1.17,2.66.41.4.84.81,1.08,1.29,1.02,2,.41,3.77-.29,4.91-1.23,2.01-3.51,3.36-4.88,3.36-.44,0-.75-.13-.92-.39-.15-.86-.41-1.61-.66-2.34-.41-1.21-.77-2.25-.72-3.9.03-1.07.34-2.09.65-3.08.28-.9.54-1.75.57-2.58.03-.8-.13-1.48-.29-2.14-.23-.94-.44-1.83-.07-3.01.35-1.12,1.65-2.85,3.03-4.69,1.84-2.44,3.73-4.96,4.08-6.85.96-5.31-3.36-10.08-6.83-13.92-.81-.9-1.58-1.74-2.24-2.55l-.07-.08h-.11c-1.85,0-10.83,7.46-11.93,8.76-4.27,5.03-3.32,10.42-2.32,16.12l.2,1.14.31-.17c2.41-1.32,4.47-1.99,6.14-1.99,2.9,0,4.69,2.07,5.31,6.15-1.57,1.46-3.63,1.68-5.81,1.91-1.46.15-2.97.31-4.32.88l-.07.03-.04.06c-1.13,1.6.48,2.87,2.19,4.23,1.77,1.4,3.78,2.99,3.45,5.28-.2.51-4.32,4.32-4.9,4.63-.85.46-1.6.69-2.21.69-.55,0-1-.18-1.36-.55-1.36-1.38-1.3-5.11-1.25-7.84.02-1.16.04-2.15-.05-2.85-.56-4.76-4.38-7.42-7.76-9.78-2.78-1.93-5.4-3.76-5.85-6.45-.19-1.13.32-2.65.81-4.13.36-1.07.73-2.18.84-3.15.44-3.93,1.62-16.59,1.27-20.46-.09-1.06-.81-2.08-1.56-3.16-.49-.71-1.01-1.44-1.33-2.18-1.97-4.53-1.26-8.19-.52-12.07.51-2.66,1.04-5.41.77-8.64-.15-1.83-2.19-10.98-2.89-12.17-.2-.33-.44-.67-.76-.67-.24,0-.4.19-.55.35-.09.1-.17.2-.27.26-.74.44-4.65,3.31-5.04,3.77-.52.61-.83,1.51-1.13,2.38-.51,1.48-1,2.88-2.4,3.16-.65.13-1.27.19-1.86.19-4.18,0-5.64-3.26-6.12-6-.4-2.28.67-4.76,1.8-7.38,1.32-3.07,2.83-6.55,2.29-10.42-.08-.58-.36-1.11-.63-1.63-.34-.64-.66-1.25-.53-1.85l3.57-4.66L1.84,3.5c.42.27.87.59,1.34.92,1.58,1.12,3.36,2.39,5.01,2.39.07,0,.14,0,.21,0,1.04-.07,2.12-.84,3.37-1.73,1.53-1.09,3.27-2.32,5.15-2.32.77,0,1.51.2,2.26.61l.25.14.1-.26c.98-2.48,1.54-2.74,1.74-2.74.49,0,.95,1.55,1.25,2.58.33,1.15.56,1.86.91,2.12l.07.05,4.82-.37v1.4s-.1.01-.17.01c-.19,0-.41-.03-.62-.06-.25-.03-.5-.07-.72-.07-.4,0-.68.11-.85.33-.21.27-.24.69-.09,1.27l.06.22,4.08-.59-.65,1.28.53-.13c.19-.05.36-.07.52-.07.8,0,1.17.58,1.54,1.14.21.33.41.64.69.8,1.58.91,3.18,1.23,4.73,1.54,1.85.37,3.6.72,5,2.05l-3.78.77,1.14.26c2.42.55,2.99,2.99,3.45,4.96.26,1.11.48,2.07.99,2.57.11.11.3.17.6.28.7.25,1.85.65,2.21,1.73-.08.03-.18.05-.29.05-.34,0-.78-.14-1.21-.27-.45-.14-.88-.27-1.25-.27-.31,0-.54.09-.7.28-.23.26-.29.69-.21,1.3l.03.19.19.02c.18.02.37.03.56.03.57,0,1.18-.07,1.77-.15.58-.07,1.19-.15,1.74-.15,1.1,0,1.84.3,2.33.97l-3.78.02-.42,1.78.37-.06c.13-.02.24-.03.34-.03.22,0,.37.04.45.13.16.17.16.53.15.91,0,.41-.02.84.18,1.19.18.32,3.56,2.15,3.91,2.27.71.24,1.34.36,1.93.36,1.06,0,1.81-.38,2.6-.79.62-.32,1.25-.64,2.1-.82,3.37-.7,8.88-1.41,13.62-1.41,2.74,0,4.88.23,6.37.69,6.95,2.14,9.65,7.35,12.51,12.86.53,1.03,1.07,2.07,1.65,3.1,1.24,2.23,3.58,4.86,5.32,6,.4.26.88.36,1.35.46.92.19,1.4.33,1.3,1.21l-.03.28h1.09s.38-1.74.38-1.74l-.21,2.2.07.08c.08.09.21.14.38.14.54,0,1.69-.49,3.26-1.19.79-.35,1.53-.68,1.86-.76.12-.03.23-.05.31-.05.06,0,.09.01.1.02.03.06-.05.34-.09.47-.08.3-.17.58-.01.78.06.07.16.16.36.16.15,0,.34-.05.61-.16,1-.42,2.28-1.35,3.53-2.25,1.2-.87,2.44-1.76,3.29-2.1.15-.06.27-.09.37-.09.11,0,.16.04.18.07.1.12.12.42.06.79-1,.19-3.33.74-3.12,2.74l.02.19.19.03c.2.03.39.04.58.04,1.13,0,2.05-.49,2.95-.95.62-.32,1.26-.66,1.97-.84l.1-.03c.3-.08.76-.19,1.13-.19.22,0,.38.04.44.12.03.04.05.1.05.17l-7.56,4.17,1.01-.02c2.19-.04,4.65-.44,6.76-1.09.87-.27,1.54-.67,2.19-1.06.59-.35,1.15-.69,1.81-.89-.38.94-1.11,1.4-1.87,1.89-1.04.66-2.12,1.35-2.26,3.28v.16s.87.49.87.49l-8.36,3.65.02.19c.08.64.75.96,2,.96.85,0,1.75-.14,2.18-.21,1.27-.2,2.02-.67,2.62-1.05.51-.32.91-.57,1.42-.57.37,0,.79.13,1.29.39l-7.97,2.19,2.46,1.82-5.28,1.21.04.23c.07.37.18.75.29,1.1.31,1.02.59,1.91-.16,2.7-.64-3.46-2.09-3.82-4.25-4.35-.87-.21-1.85-.46-2.97-.94l-.57-.25,1.22,2.9c-.08-.11-.16-.23-.25-.34-.71-1-1.44-2.03-2.73-2.15-.04,0-.08,0-.12,0-.39,0-.85.14-1.29.28-.36.11-.73.23-.97.23-.1,0-.14-.02-.15-.03-.08-.06-.2-.41-.3-.69-.41-1.14-1.08-3.04-3.32-3.04-.21,0-.43.02-.67.05l-.13.02-.06.11c-1.06,2.09.09,3.35,1.2,4.56.19.21.39.43.58.65l-2.23-.61.02-.14c.15-1.2.03-1.99-1.05-2.71l-.06-.04h-1.26s.11,2.2.11,2.2l.68.27-2.18-.59-.1.11c-2.08,2.14-3.02,4.98-3.92,7.73-.32.96-.64,1.95-1.01,2.88-.55,1.41-1.16,2.84-1.78,4.29-1.39,3.28-2.83,6.67-3.74,10.02-.53,1.94-.59,3.93-.66,5.86-.06,1.73-.11,3.36-.51,4.7-.67,2.26-2.25,4.96-3.92,7.81-2.52,4.3-5.12,8.74-5.04,12.4.01.51.19,1.07.36,1.61.23.71.46,1.45.28,1.97-.17.5-.66.61-1.18.73-.35.08-.72.17-.97.38-.47.41-.81.76-1.08,1.05-.58.62-.85.91-1.66.91-.49,0-1.17-.11-2.21-.34l-.34-.08.04.35c.17,1.56-.22,3.76-1.28,4.94-.45.5-.98.76-1.57.76ZM29.38,95.02c-2.05,5.12-1.54,8.73,1.77,12.48.07.08.11.2.14.32.08.26.2.66.8.66h0c.19,0,.43-.04.73-.12l.08-.02.05-.06c.57-.72.11-5.07-.65-8.19-.5-2.06-1.36-4.63-2.6-5.19l-.24-.11-.1.24ZM36.25,83.08c-1.28.62-2.64,2.31-2.59,3.96v.39s.36-.17.36-.17c1.28-.62,2.64-2.31,2.59-3.96v-.39s-.36.17-.36.17ZM108.57,65.37v1.07s4.22.69,4.22.69v-1.78s-4.22.02-4.22.02ZM24.61,8.59c1.8,0,2.28.4,2.28.63h.5c0-.42-.36-1.13-2.78-1.13v.5Z"/><path class="cls-1" d="M21.26.75c.34.11.81,1.71,1.01,2.4.36,1.24.59,1.95,1.01,2.25l.15.1h.18s4.46-.35,4.46-.35v.9c-.14,0-.33-.03-.52-.06-.25-.03-.51-.07-.75-.07-.18,0-.71,0-1.04.42-.26.33-.31.82-.14,1.49v.06c-.28-.03-.62-.05-1-.05v1c1.64,0,1.99.34,2.03.39-.04.13-.47.49-1.03.49v1c.46,0,.94-.15,1.33-.4.45-.29.7-.7.7-1.1,0-.39-.2-.82-.93-1.09l2.84-.41-.18.36-.5.98,1.07-.27c.17-.04.32-.06.46-.06.62,0,.91.39,1.33,1.03.23.35.45.69.78.88,1.61.93,3.24,1.25,4.81,1.56,1.72.34,3.23.64,4.51,1.67l-2.15.44-2.29.46,2.28.51c2.27.51,2.79,2.77,3.26,4.77.27,1.15.5,2.14,1.06,2.69.15.14.36.22.69.34.62.22,1.52.54,1.93,1.29-.3-.02-.69-.14-1.07-.26-.47-.15-.92-.28-1.33-.28-.38,0-.68.12-.89.37-.28.32-.36.8-.27,1.5l.05.39.39.04c.19.02.38.03.58.03.58,0,1.2-.08,1.8-.15.58-.07,1.17-.14,1.71-.14.76,0,1.33.15,1.75.48l-3,.02h-.39s-.09.39-.09.39l-.29,1.23-.17.72.73-.11c.11-.02.21-.03.3-.03.16,0,.25.03.28.06.09.09.08.48.08.73,0,.43-.02.91.21,1.32.25.46,3.85,2.32,4.04,2.38.74.25,1.4.37,2.01.37,1.12,0,1.93-.41,2.71-.82.6-.31,1.22-.63,2.04-.8,3.35-.7,8.85-1.4,13.57-1.4,2.71,0,4.83.23,6.3.68,6.85,2.11,9.53,7.28,12.37,12.74.53,1.02,1.07,2.07,1.65,3.11,1.28,2.3,3.6,4.91,5.4,6.09.44.29.97.4,1.43.49.97.2,1.18.3,1.1.93l-.06.56h.56s.6,0,.6,0h.14s0,.07,0,.07l-.02.22.15.16c.13.15.32.22.56.22.6,0,1.72-.48,3.36-1.21.74-.33,1.51-.67,1.82-.75.02,0,.04,0,.06-.01-.01.05-.03.1-.04.14-.09.33-.2.69.03,1,.07.1.24.26.56.26.19,0,.41-.06.7-.18,1.02-.43,2.32-1.37,3.58-2.28,1.18-.86,2.41-1.74,3.23-2.07.15-.06.24-.07.27-.09.03.04.06.18.03.42-1.13.23-3.37.87-3.14,2.98l.04.39.38.05c.21.03.41.04.62.04,1.19,0,2.14-.5,3.06-.98.63-.33,1.23-.65,1.91-.82l.11-.03c.29-.07.73-.19,1.07-.19.02,0,.03,0,.05,0l-6.36,3.51-1.76.97,2.01-.04c2.21-.04,4.7-.44,6.83-1.1.89-.28,1.58-.69,2.24-1.08.38-.23.75-.44,1.13-.62-.37.51-.89.84-1.45,1.2-1.04.66-2.23,1.42-2.38,3.47l-.02.32.28.16.3.17-7.73,3.37-.34.15.05.37c.1.78.86,1.18,2.25,1.18.16,0,.33,0,.49-.01l-.51.14-.99.27.83.61,1.61,1.19-2.66.61v-.35s0-1.23,0-1.23v-.5s-.5,0-.5,0l-3.71.02h-.5s0,.5,0,.5v.61s0,.42,0,.42l.42.07,3.67.6-1.23.28-.47.11.09.47c.07.39.19.77.3,1.13.26.86.43,1.47.2,2.01-.73-3.09-2.26-3.47-4.31-3.97-.86-.21-1.83-.45-2.93-.93l-1.15-.5.49,1.15.22.53c-.52-.54-1.14-.97-1.97-1.04-.05,0-.1,0-.15,0-.43,0-.9.15-1.37.29-.33.1-.68.21-.89.23-.06-.11-.15-.37-.22-.57-.4-1.12-1.14-3.21-3.55-3.21-.23,0-.47.02-.71.06l-.25.04-.12.23c-.45.9-.53,1.65-.38,2.32-.18-.23-.43-.46-.75-.67l-.13-.08h-.15s-.92,0-.92,0h-.53s.03.53.03.53l.09,1.67-1.03-.28-.28-.08-.21.21c-2.12,2.18-3.07,5.05-3.98,7.83-.31.95-.64,1.94-1.01,2.87-.55,1.4-1.14,2.8-1.77,4.28-1.4,3.29-2.84,6.68-3.75,10.05-.53,1.96-.6,3.98-.66,5.92-.06,1.71-.11,3.33-.5,4.64-.66,2.23-2.23,4.92-3.9,7.76-2.53,4.33-5.15,8.8-5.08,12.53.01.54.2,1.12.37,1.68.21.67.43,1.37.28,1.81-.11.33-.41.43-1,.57-.38.09-.78.18-1.08.44-.48.41-.82.78-1.1,1.07-.57.6-.78.83-1.48.83-.47,0-1.13-.1-2.15-.34l-.68-.16.07.7c.16,1.47-.22,3.63-1.21,4.74-.4.45-.87.67-1.38.67-.48,0-1.02-.19-1.6-.57-.21-.13-.31-.29-.34-.51-.17-1.2,1.87-3.53,3.36-5.22.94-1.07,1.67-1.91,1.96-2.51.29-.61.65-1.35,1.05-2.17,1.96-4.01,4.91-10.07,5.61-12.96.4-1.64.48-3.58.55-5.45.07-1.72.14-3.34.43-4.7.16-.74.63-1.58,1.12-2.47.46-.83.94-1.69,1.22-2.56.46-1.46,1.22-6.14,1.64-10.78.79-8.89-.34-9.69-.72-9.96l-.25-.18-.27.15-11.08,6-.31.17.05.35c.34,2.24,1.98,4.49,3.56,6.66,1.88,2.59,3.66,5.03,3.29,7.25-1.06,2.15-2.48,4.15-3.86,6.1-1.25,1.77-2.55,3.61-3.59,5.55-.72,1.35-1.26,2.72-1.78,4.04-.68,1.71-1.31,3.33-2.31,4.88l-.04.07-.02.08c-.32,1.29.53,2.11,1.27,2.83.4.38.81.78,1.04,1.23.97,1.89.38,3.58-.28,4.67-1.18,1.94-3.37,3.24-4.66,3.24-.31,0-.53-.07-.66-.22-.19-.91-.44-1.64-.68-2.35-.41-1.19-.76-2.21-.71-3.81.03-1.04.34-2.04.64-3.02.28-.91.54-1.78.58-2.64.04-.84-.13-1.53-.3-2.21-.23-.94-.42-1.76-.08-2.87.33-1.08,1.62-2.79,2.99-4.61,1.85-2.46,3.77-5.01,4.12-6.95.98-5.43-3.38-10.25-6.89-14.13-.81-.89-1.57-1.74-2.23-2.54l-.13-.16-.21-.02h-.06s-.02,0-.02,0c-1.92,0-10.79,7.35-12.06,8.85-4.35,5.12-3.39,10.56-2.38,16.33l.14.79.12.69.61-.34c2.37-1.3,4.39-1.96,6.02-1.96,2.77,0,4.42,1.9,5.04,5.81-1.5,1.33-3.48,1.53-5.57,1.75-1.48.15-3,.31-4.39.89l-.13.06-.08.12c-1.27,1.79.51,3.2,2.23,4.57,1.7,1.35,3.63,2.88,3.37,4.99-.4.65-4.24,4.21-4.77,4.5-.82.44-1.52.66-2.09.66-.48,0-.87-.16-1.19-.48-1.29-1.31-1.23-4.98-1.18-7.66.02-1.16.04-2.17-.05-2.88-.58-4.87-4.45-7.57-7.86-9.95-2.73-1.9-5.31-3.7-5.75-6.29-.18-1.07.32-2.56.81-4.01.36-1.08.74-2.2.85-3.21.44-3.93,1.62-16.62,1.27-20.51-.1-1.13-.83-2.17-1.61-3.28-.49-.7-.99-1.42-1.3-2.13-1.93-4.46-1.24-8.09-.5-11.92.51-2.68,1.05-5.45.77-8.71-.15-1.73-2.15-10.97-2.92-12.28-.23-.39-.53-.8-.98-.8-.36,0-.58.25-.74.44-.07.08-.15.17-.21.21-.69.41-4.67,3.31-5.1,3.82-.55.65-.87,1.57-1.17,2.46-.49,1.41-.95,2.75-2.21,3-.63.13-1.24.19-1.81.19-4.01,0-5.41-3.15-5.87-5.79-.39-2.2.67-4.65,1.79-7.24,1.34-3.1,2.85-6.61,2.31-10.55-.09-.62-.38-1.17-.66-1.71-.32-.61-.6-1.13-.52-1.63l3.44-4.49.18-.24-.13-.27L2.44,4.2c.19.14.39.28.59.42,1.61,1.14,3.43,2.44,5.15,2.44.07,0,.15,0,.22,0,1.11-.07,2.21-.86,3.5-1.77,1.5-1.07,3.2-2.28,5.01-2.28.73,0,1.43.19,2.13.58l.5.28.21-.53c.95-2.41,1.46-2.58,1.5-2.58M33.43,87.82l.7-.34c1.35-.65,2.78-2.44,2.73-4.19l-.02-.77-.7.34c-1.35.65-2.78,2.44-2.73,4.19l.02.77M32.1,108.73c.22,0,.48-.04.8-.13l.16-.04.1-.13c.69-.86.11-5.48-.6-8.41-.75-3.07-1.67-4.87-2.74-5.35l-.48-.21-.19.48c-2.06,5.15-1.52,8.96,1.82,12.74.03.04.06.13.09.22.08.27.25.84,1.04.84M120.51,62.52c.16,0,.34.03.54.09l-2.01.55c.06-.04.12-.07.18-.11.49-.31.85-.53,1.29-.53M94.47,66.99c.32.54.76,1.01,1.18,1.47h.01s-1.21-.31-1.21-.31c.05-.42.07-.8.02-1.15M21.26.25c-.49,0-1.12.76-1.97,2.9-.82-.46-1.62-.64-2.38-.64-3.47,0-6.31,3.9-8.54,4.05-.06,0-.13,0-.19,0-2.3,0-4.97-2.67-6.91-3.69l5.52,11.97-3.51,4.58c-.3,1.21.97,2.35,1.15,3.62.98,7.12-4.99,12.76-4.09,17.81.68,3.86,2.8,6.2,6.37,6.2.6,0,1.23-.07,1.91-.2,2.44-.49,2.34-4.05,3.66-5.62.36-.43,4.27-3.29,4.98-3.71.3-.18.46-.58.69-.58.14,0,.31.14.55.55.69,1.17,2.71,10.3,2.86,12.06.67,7.93-3.57,13.08-.23,20.78.81,1.86,2.72,3.57,2.87,5.26.33,3.77-.79,16.09-1.27,20.41-.26,2.29-1.99,5.33-1.65,7.36,1.04,6.14,12.6,7.69,13.61,16.21.34,2.85-1.04,11.46,2.91,11.46.63,0,1.4-.22,2.33-.72.59-.31,4.96-4.33,5.03-4.81.68-4.69-7.75-6.48-5.68-9.39,3.31-1.39,7.57-.26,10.3-2.92-.67-4.67-2.75-6.5-5.57-6.5-1.83,0-3.98.77-6.26,2.02-1.06-6.1-2.26-11.55,2.13-16.71,1.3-1.53,10.07-8.68,11.68-8.68.01,0,.03,0,.04,0,3.59,4.37,10.18,9.89,9.02,16.26-.59,3.27-6.28,8.87-7.1,11.51-.65,2.09.43,3.32.35,5.21-.07,1.7-1.16,3.58-1.22,5.66-.08,2.7.93,3.89,1.43,6.38.23.35.63.51,1.13.51,2.56,0,7.66-4.2,5.39-8.63-.72-1.4-2.67-2.09-2.27-3.71,1.81-2.83,2.49-5.92,4.1-8.95,2.17-4.08,5.43-7.56,7.49-11.73.83-4.44-6.12-9.44-6.83-14.14l11.08-6c1.92,1.36-.19,17.26-1.11,20.18-.54,1.73-2.02,3.53-2.35,5.08-.63,2.94-.24,7.08-.98,10.14-.82,3.42-4.92,11.47-6.63,15.03-.86,1.8-7.31,7.24-4.8,8.87.7.45,1.32.65,1.87.65,2.35,0,3.34-3.57,3.09-5.97,1.04.24,1.74.35,2.26.35,1.34,0,1.44-.76,2.9-2.02.55-.47,1.88-.21,2.23-1.23.35-1.03-.6-2.53-.63-3.67-.12-6,7.26-14.43,8.95-20.13.85-2.85.17-6.9,1.16-10.57,1.31-4.82,3.71-9.71,5.51-14.29,1.42-3.62,2.13-7.69,4.88-10.53l6.54,1.79c-1.23-1.79-3.51-2.95-2.21-5.53.23-.04.44-.05.63-.05,2.81,0,2.96,3.34,3.47,3.69.08.05.18.07.3.07.58,0,1.59-.51,2.27-.51.03,0,.07,0,.1,0,1.85.16,2.5,2.48,3.82,3.53l-1.56-3.71c4.04,1.76,6.35.37,7.15,5.54,1.68-1.25.57-2.8.29-4.33l5.57-1.28-2.48-1.83,8.05-2.22c-.84-.53-1.44-.73-1.93-.73-1.26,0-1.85,1.27-4.01,1.61-.38.06-1.34.22-2.21.22s-1.68-.16-1.75-.74l8.65-3.77-1.19-.66c.25-3.36,3.51-2.67,4.26-5.54-1.69.34-2.66,1.51-4.45,2.06-2.06.64-4.52,1.04-6.69,1.08l6.8-3.75c.08-.54-.28-.69-.73-.69s-1,.15-1.3.23c-1.77.44-3.02,1.78-4.85,1.78-.18,0-.36-.01-.54-.04-.19-1.74,1.79-2.26,3.08-2.5.12-.55.15-1.32-.46-1.32-.12,0-.28.03-.46.1-1.76.7-4.88,3.53-6.82,4.36-.24.1-.4.14-.51.14-.63,0,.53-1.43-.36-1.43-.1,0-.22.02-.37.05-.89.22-4.17,1.95-5.06,1.95-.09,0-.16-.02-.19-.06l.58-6.2-1.21,5.58h-.6c.2-1.74-1.7-1.21-2.76-1.9-1.79-1.16-4.06-3.78-5.24-5.91-3.64-6.55-5.94-13.5-14.3-16.08-1.64-.51-3.93-.7-6.45-.7-4.78,0-10.34.72-13.67,1.41-1.98.41-2.84,1.6-4.65,1.6-.52,0-1.12-.1-1.85-.34-.46-.16-3.66-1.96-3.77-2.15-.44-.79.38-2.36-1-2.36-.11,0-.23.01-.37.03l.29-1.23,4.03-.02c-.62-1.18-1.64-1.47-2.78-1.47s-2.39.29-3.51.29c-.18,0-.36,0-.53-.03-.14-1.01.16-1.3.66-1.3.68,0,1.72.54,2.46.54.23,0,.43-.05.58-.18-.43-1.78-2.65-2.03-2.93-2.3-1.32-1.29-.63-6.71-4.55-7.59l3.09-.63c-2.65-2.92-6.52-1.9-10.11-3.96-.65-.37-.92-1.97-2.35-1.97-.18,0-.37.02-.58.08l.62-1.22-4.34.63c-.27-1.06.13-1.29.7-1.29.42,0,.94.13,1.34.13.17,0,.32-.02.44-.09l-.02-1.85-4.99.38c-.73-.52-1.14-4.74-2.3-4.74h0ZM27.15,9.22c0-.45-.65-.88-2.53-.88,1.89,0,2.53.43,2.53.88,0,.49-.76,1-1.53,1,.77,0,1.53-.51,1.53-1h0ZM112.54,66.83l-3.71-.61v-.61s3.71-.02,3.71-.02v1.23h0ZM93.95,68.16l-1.77-.69-.09-1.78h.92c.98.65,1.09,1.33.94,2.47h0ZM33.91,87.04c-.04-1.46,1.16-3.11,2.45-3.73.04,1.46-1.16,3.11-2.45,3.73h0ZM32.1,108.23c-.65,0-.46-.55-.76-.9-3.42-3.87-3.62-7.5-1.73-12.22,2.47,1.11,3.92,12.04,3.15,13-.29.08-.5.11-.66.11h0Z"/></g></svg>