<?xml version="1.0" encoding="UTF-8"?>
<svg id="Layer_2" data-name="Layer 2" xmlns="http://www.w3.org/2000/svg" viewBox="0 0 27.98 15.5">
  <g id="Layer_1-2" data-name="Layer 1">
    <path d="M27.98,7.76c-.84,1.51-1.86,2.8-3.08,3.86-2.92,2.59-6.55,3.88-10.89,3.88s-7.97-1.29-10.91-3.88c-1.22-1.06-2.25-2.35-3.1-3.86.85-1.51,1.88-2.8,3.1-3.88C6.03,1.29,9.67,0,14,0s7.97,1.29,10.89,3.88c1.22,1.08,2.24,2.37,3.08,3.88ZM19.16,7.76c0-1.39-.51-2.58-1.52-3.57-1.01-.99-2.23-1.48-3.65-1.48-.75,0-1.46.15-2.14.46l-.54-1.22c-3.95.67-6.83,2.61-8.66,5.82.53.93,1.17,1.77,1.92,2.49,1.82,1.75,4.04,2.85,6.68,3.31-1.14-.51-2.06-1.29-2.75-2.33-.7-1.04-1.04-2.2-1.04-3.47,0-.77.14-1.52.41-2.25l1.3.41c-.24.6-.36,1.21-.36,1.84,0,1.4.5,2.59,1.52,3.58,1.01.98,2.23,1.48,3.65,1.48s2.64-.49,3.65-1.48c1.01-.98,1.52-2.18,1.52-3.58ZM17.9,7.76c0,1.05-.38,1.96-1.15,2.71-.77.75-1.69,1.12-2.76,1.12s-2.01-.38-2.77-1.12-1.14-1.65-1.14-2.71c0-.47.08-.92.25-1.35l3.99,1.81-1.88-3.96c.49-.22,1-.33,1.55-.33,1.08,0,2,.38,2.76,1.12.77.75,1.15,1.65,1.15,2.71ZM25.32,7.76c-.53-.94-1.18-1.77-1.94-2.51-1.83-1.76-4.08-2.86-6.75-3.31,1.16.5,2.1,1.27,2.8,2.3.72,1.06,1.08,2.24,1.08,3.52s-.35,2.43-1.05,3.47c-.7,1.04-1.62,1.82-2.76,2.33,3.93-.67,6.81-2.61,8.62-5.8Z"/>
  </g>
</svg>