<?xml version="1.0" encoding="UTF-8"?>
<svg id="Layer_2" data-name="Layer 2" xmlns="http://www.w3.org/2000/svg" viewBox="0 0 23.02 24.01">
  <g id="Layer_1-2" data-name="Layer 1">
    <path d="M8.92,14.35c-1.05,1.12-2.42,2.25-4.09,3.38-1.74,1.16-3.3,1.98-4.68,2.45l-.15-.59c1.25-.4,2.74-1.19,4.48-2.36,1.68-1.14,2.99-2.23,3.91-3.26l.52.39ZM9.86,14.66c-1.51,1.8-4.6,4.63-9.26,8.49l-.33-.54c2.16-1.73,4.11-3.39,5.85-4.99,1.52-1.4,2.59-2.51,3.21-3.33l.52.36ZM9.44,6.81c0,.11-.01.21-.03.29-.66-1.51-1.97-2.27-3.91-2.27-.75,0-1.35.08-1.79.24,1.52,2.35,2.86,3.52,4.03,3.52.6,0,.89-.24.88-.73-.18-.24-1.04-.83-2.56-1.78.95,0,2.07.52,3.38,1.52v.07c0,.48-.17.86-.51,1.15-.34.29-.76.43-1.25.43-1.11,0-2.24-.75-3.39-2.25-.28-.4-.57-.8-.85-1.21-.35-.46-.7-.79-1.06-1.01,1.37-.4,2.4-.6,3.1-.6,1.13,0,2.05.22,2.77.65.8.49,1.21,1.15,1.21,1.97ZM10.22,15.54c-2.85,3.3-4.92,6.13-6.23,8.48l-.57-.23c1.28-2.28,3.37-5.14,6.26-8.57l.54.33ZM14.53,10.56c-.21.25-.55.8-1.03,1.66-.37.64-.74,1.09-1.12,1.35-.51.36-1.08.54-1.71.54-.74,0-1.31-.31-1.71-.93-.36-.53-.54-1.19-.54-1.96,0-.53.14-1.08.42-1.65.1.49.42.89.96,1.19.48.27.99.41,1.53.41.79,0,1.8-.31,3.02-.95l.18.33ZM15.47,4.65c0,.78-.17,1.43-.52,1.96-.41.62-.99.93-1.73.93-.14,0-.28,0-.41-.03-.91-.15-1.62-.61-2.14-1.37-.45-.72-.89-1.44-1.34-2.17l.2-.31c1.24.63,2.24.95,3.02.95.53,0,1.04-.14,1.53-.41.54-.3.86-.7.96-1.19.28.56.42,1.11.42,1.65ZM13.97,9.6c0,.38-.28.68-.83.9-.43.16-.88.24-1.32.24-.97,0-1.45-.34-1.45-1.03,0-.46.24-.69.72-.69.29,0,.55.18.78.54-.17-.04-.32-.07-.44-.07-.28,0-.42.1-.42.29,0,.22.29.33.88.33.92,0,1.39-.18,1.39-.55s-.2-.69-.61-.96c-.41-.27-.8-.41-1.18-.41-1.05,0-1.59.45-1.61,1.34-.21-.3-.31-.55-.31-.75,0-.36.2-.65.59-.87.39-.22.84-.33,1.35-.33.56,0,1.11.2,1.63.59.57.42.85.9.85,1.43ZM14.35,2.12c0,.22-.11.5-.34.83,0-.88-.54-1.32-1.61-1.32-.46,0-.87.13-1.24.41-.37.27-.55.59-.55.95s.47.54,1.42.54c.58,0,.86-.11.86-.33,0-.18-.15-.28-.44-.28-.12,0-.27.02-.44.07.24-.35.51-.52.8-.52.48,0,.72.22.72.67,0,.68-.48,1.03-1.45,1.03-.45,0-.89-.09-1.32-.26-.57-.22-.85-.52-.85-.9,0-.51.27-.97.8-1.39.53-.41,1.1-.62,1.7-.62.4,0,.8.08,1.19.25.51.22.77.51.77.88ZM20.49,17.38c-.33-.26-.77-.47-1.32-.64-.48-.13-.96-.26-1.43-.39-2.27-.72-3.41-1.77-3.41-3.16,0-.75.36-1.24,1.09-1.47,1.39.89,2.25,1.77,2.58,2.62-.41-.34-.82-.67-1.22-.99-.52-.41-.97-.68-1.34-.8-.29.1-.44.33-.44.7,0,1.17,1.51,2.15,4.53,2.93l.21.05c0-.68-.18-1.42-.54-2.19s-.8-1.37-1.31-1.79-1.18-.65-1.98-.72c.23-.15.51-.23.85-.23.8,0,1.53.36,2.17,1.09.55.62.95,1.36,1.17,2.22.17.65.3,1.57.39,2.76ZM19.71,11.04l-.25.28c-.84-.17-1.67-.34-2.49-.51-.87-.21-1.54-.72-2-1.55-.2-.35-.29-.7-.29-1.06,0-.78.38-1.42,1.12-1.92.66-.43,1.4-.65,2.22-.65.17,0,.31,0,.41.02-.54.34-.82.98-.82,1.92,0,1.04.7,2.2,2.1,3.47ZM23.02.34c-.34.25-.66.62-.96,1.11-.24.42-.48.85-.73,1.27-1.09,1.7-2.22,2.54-3.41,2.54-1.09,0-1.65-.5-1.68-1.5,1.22-1.11,2.29-1.71,3.21-1.81-1.09.71-1.88,1.38-2.38,2,.03.44.3.65.82.65,1.15,0,2.43-1.29,3.83-3.86-.32-.08-.65-.11-.99-.11-2.41,0-3.92.88-4.52,2.62-.04-.12-.06-.25-.06-.41,0-.92.48-1.65,1.43-2.19.79-.45,1.69-.67,2.69-.67.68,0,1.6.11,2.75.34ZM21.36,8.23c0,.51-.14,1.01-.41,1.48-.28.52-.61.78-.98.78-.42,0-.83-.3-1.22-.9-.35-.55-.52-1.06-.52-1.52,0-.66.27-.99.82-.99.47,0,.7.23.7.7,0,.24-.08.47-.24.7-.07-.51-.21-.77-.44-.77-.15,0-.23.1-.23.29,0,.29.11.65.33,1.08.24.48.49.72.75.72.22,0,.41-.19.59-.57.15-.35.23-.68.23-1,0-.45-.13-.84-.39-1.2s-.57-.53-.91-.53c-.23,0-.42.03-.59.08.32-.43.61-.65.88-.65.37,0,.74.25,1.1.74s.55,1.01.55,1.54Z"/>
  </g>
</svg>